<svg width="12" height="12" viewBox="0 0 12 12" fill="none" xmlns="http://www.w3.org/2000/svg">
<path d="M5.33143 0.0424434C2.56788 0.349047 0.345027 2.61792 0.0446407 5.37735C-0.315822 8.44339 1.54657 11.0802 4.18997 11.9387V10.5283C4.18997 10.5283 3.94966 10.5896 3.64927 10.5896C2.80819 10.5896 2.44773 9.85377 2.38765 9.42453C2.32757 9.17924 2.20742 8.99528 2.02719 8.81132C1.84696 8.75 1.78688 8.75 1.78688 8.68868C1.78688 8.56604 1.96711 8.56604 2.02719 8.56604C2.38765 8.56604 2.68804 8.99528 2.80819 9.17924C3.10858 9.66981 3.46904 9.79245 3.64927 9.79245C3.88958 9.79245 4.06981 9.73113 4.18997 9.66981C4.25004 9.24056 4.43027 8.81132 4.79074 8.56604C3.40896 8.25943 2.38765 7.46226 2.38765 6.1132C2.38765 5.43867 2.68804 4.76415 3.10858 4.27358C3.0485 4.15094 2.98842 3.84433 2.98842 3.41509C2.98842 3.1698 2.98842 2.80188 3.16865 2.43395C3.16865 2.43395 4.00974 2.43395 4.85082 3.23113C5.1512 3.10848 5.57174 3.04716 5.99228 3.04716C6.41282 3.04716 6.83336 3.10848 7.19383 3.23113C7.97483 2.43395 8.87599 2.43395 8.87599 2.43395C8.99614 2.80188 8.99614 3.1698 8.99614 3.41509C8.99614 3.90565 8.93606 4.15094 8.87599 4.27358C9.29653 4.76415 9.59691 5.37735 9.59691 6.1132C9.59691 7.46226 8.5756 8.25943 7.19383 8.56604C7.55429 8.87264 7.7946 9.42453 7.7946 9.97641V12C10.2578 11.2028 12 8.87264 12 6.17452C12 2.49528 8.93606 -0.386802 5.33143 0.0424434Z" fill="white"/>
</svg>
