<svg width="12" height="12" viewBox="0 0 12 12" fill="none" xmlns="http://www.w3.org/2000/svg">
<path d="M9.75 0H2.25C1.00781 0 0 1.00781 0 2.25V9.75C0 10.9922 1.00781 12 2.25 12H9.75C10.9922 12 12 10.9922 12 9.75V2.25C12 1.00781 10.9922 0 9.75 0ZM3.71034 10.1863H1.84615L1.83534 4.60457H3.69952L3.71034 10.1863ZM2.73137 3.8744H2.72055C2.11118 3.8744 1.71815 3.45433 1.71815 2.93149C1.71815 2.39603 2.1238 1.99038 2.74399 1.99038C3.36418 1.99038 3.74459 2.39603 3.75721 2.93149C3.75721 3.45433 3.36238 3.8744 2.73137 3.8744ZM10.1737 10.1863H8.29327V7.15385C8.29327 6.42007 8.09856 5.92067 7.44231 5.92067C6.94111 5.92067 6.67067 6.25781 6.54087 6.58413C6.49219 6.70132 6.47957 6.86178 6.47957 7.02584V10.1863H4.59014L4.57933 4.60457H6.46875L6.47957 5.39243C6.72115 5.01923 7.1232 4.49099 8.08594 4.49099C9.27945 4.49099 10.1719 5.26983 10.1719 6.94471V10.1863H10.1737Z" fill="white"/>
</svg>
